<?xml version="1.0" encoding="UTF-8" standalone="no"?>
<!DOCTYPE svg PUBLIC "-//W3C//DTD SVG 1.1//EN"
 "http://www.w3.org/Graphics/SVG/1.1/DTD/svg11.dtd">
<!-- Generated by graphviz version 14.1.3 (20260303.0454)
 -->
<!-- Title: dreaming Pages: 1 -->
<svg width="1023pt" height="152pt"
 viewBox="0.00 0.00 1023.00 152.00" xmlns="http://www.w3.org/2000/svg" xmlns:xlink="http://www.w3.org/1999/xlink">
<g id="graph0" class="graph" transform="scale(1 1) rotate(0) translate(4 147.5)">
<title>dreaming</title>
<polygon fill="white" stroke="none" points="-4,4 -4,-147.5 1019,-147.5 1019,4 -4,4"/>
<text xml:space="preserve" text-anchor="middle" x="507.5" y="-129.05" font-family="Helvetica,sans-Serif" font-size="11.00">Heartbeat&#45;paced memory consolidation — &quot;dreaming&quot;</text>
<text xml:space="preserve" text-anchor="middle" x="507.5" y="-115.55" font-family="Helvetica,sans-Serif" font-size="11.00">every N beats, short&#45;term perception is consolidated into long&#45;term memory</text>
<!-- heartbeat -->
<g id="node1" class="node">
<title>heartbeat</title>
<path fill="#fdeef0" stroke="#e6a9b4" d="M408.5,-108.5C408.5,-108.5 282.25,-108.5 282.25,-108.5 276.25,-108.5 270.25,-102.5 270.25,-96.5 270.25,-96.5 270.25,-72 270.25,-72 270.25,-66 276.25,-60 282.25,-60 282.25,-60 408.5,-60 408.5,-60 414.5,-60 420.5,-66 420.5,-72 420.5,-72 420.5,-96.5 420.5,-96.5 420.5,-102.5 414.5,-108.5 408.5,-108.5"/>
<text xml:space="preserve" text-anchor="middle" x="345.38" y="-94.05" font-family="Helvetica,sans-Serif" font-size="11.00">vital · heartbeat</text>
<text xml:space="preserve" text-anchor="middle" x="345.38" y="-80.55" font-family="Helvetica,sans-Serif" font-size="11.00">(pacemaker)</text>
<text xml:space="preserve" text-anchor="middle" x="345.38" y="-67.05" font-family="Helvetica,sans-Serif" font-size="11.00">♥ every HEARTBEAT_MS</text>
</g>
<!-- dreaming -->
<g id="node4" class="node">
<title>dreaming</title>
<path fill="#eafbf1" stroke="#9fe3bf" d="M704.25,-78.5C704.25,-78.5 530.75,-78.5 530.75,-78.5 524.75,-78.5 518.75,-72.5 518.75,-66.5 518.75,-66.5 518.75,-42 518.75,-42 518.75,-36 524.75,-30 530.75,-30 530.75,-30 704.25,-30 704.25,-30 710.25,-30 716.25,-36 716.25,-42 716.25,-42 716.25,-66.5 716.25,-66.5 716.25,-72.5 710.25,-78.5 704.25,-78.5"/>
<text xml:space="preserve" text-anchor="middle" x="617.5" y="-64.05" font-family="Helvetica,sans-Serif" font-size="11.00">dreaming pass</text>
<text xml:space="preserve" text-anchor="middle" x="617.5" y="-50.55" font-family="Helvetica,sans-Serif" font-size="11.00">consolidate(): counts by kind,</text>
<text xml:space="preserve" text-anchor="middle" x="617.5" y="-37.05" font-family="Helvetica,sans-Serif" font-size="11.00">salient events, window, avg load</text>
</g>
<!-- heartbeat&#45;&gt;dreaming -->
<g id="edge2" class="edge">
<title>heartbeat&#45;&gt;dreaming</title>
<path fill="none" stroke="#5a6b7b" d="M420.9,-75.97C447.51,-73.02 478.07,-69.62 507,-66.41"/>
<polygon fill="#5a6b7b" stroke="#5a6b7b" points="507.37,-69.89 516.92,-65.31 506.6,-62.93 507.37,-69.89"/>
<text xml:space="preserve" text-anchor="middle" x="469.62" y="-76.39" font-family="Helvetica,sans-Serif" font-size="9.00">every N beats</text>
</g>
<!-- percepts -->
<g id="node2" class="node">
<title>percepts</title>
<path fill="white" stroke="#c3ced9" d="M155.5,-42.25C155.5,-42.25 12,-42.25 12,-42.25 6,-42.25 0,-36.25 0,-30.25 0,-30.25 0,-18.25 0,-18.25 0,-12.25 6,-6.25 12,-6.25 12,-6.25 155.5,-6.25 155.5,-6.25 161.5,-6.25 167.5,-12.25 167.5,-18.25 167.5,-18.25 167.5,-30.25 167.5,-30.25 167.5,-36.25 161.5,-42.25 155.5,-42.25"/>
<text xml:space="preserve" text-anchor="middle" x="83.75" y="-27.3" font-family="Helvetica,sans-Serif" font-size="11.00">perceptions</text>
<text xml:space="preserve" text-anchor="middle" x="83.75" y="-13.8" font-family="Helvetica,sans-Serif" font-size="11.00">(audio / vision / screen / ui)</text>
</g>
<!-- shortterm -->
<g id="node3" class="node">
<title>shortterm</title>
<path fill="#eef4fb" stroke="#9fc0e3" d="M395.38,-42.25C395.38,-42.25 295.38,-42.25 295.38,-42.25 289.38,-42.25 283.38,-36.25 283.38,-30.25 283.38,-30.25 283.38,-18.25 283.38,-18.25 283.38,-12.25 289.38,-6.25 295.38,-6.25 295.38,-6.25 395.38,-6.25 395.38,-6.25 401.38,-6.25 407.38,-12.25 407.38,-18.25 407.38,-18.25 407.38,-30.25 407.38,-30.25 407.38,-36.25 401.38,-42.25 395.38,-42.25"/>
<text xml:space="preserve" text-anchor="middle" x="345.38" y="-27.3" font-family="Helvetica,sans-Serif" font-size="11.00">short&#45;term memory</text>
<text xml:space="preserve" text-anchor="middle" x="345.38" y="-13.8" font-family="Helvetica,sans-Serif" font-size="11.00">(rolling buffer)</text>
</g>
<!-- percepts&#45;&gt;shortterm -->
<g id="edge1" class="edge">
<title>percepts&#45;&gt;shortterm</title>
<path fill="none" stroke="#5a6b7b" d="M167.97,-24.25C201.4,-24.25 239.59,-24.25 271.87,-24.25"/>
<polygon fill="#5a6b7b" stroke="#5a6b7b" points="271.51,-27.75 281.51,-24.25 271.51,-20.75 271.51,-27.75"/>
<text xml:space="preserve" text-anchor="middle" x="218.88" y="-26.95" font-family="Helvetica,sans-Serif" font-size="9.00">reactions push</text>
</g>
<!-- shortterm&#45;&gt;dreaming -->
<g id="edge3" class="edge">
<title>shortterm&#45;&gt;dreaming</title>
<path fill="none" stroke="#5a6b7b" d="M407.67,-31.06C437.04,-34.32 473.12,-38.33 506.98,-42.09"/>
<polygon fill="#5a6b7b" stroke="#5a6b7b" points="506.53,-45.56 516.86,-43.18 507.31,-38.6 506.53,-45.56"/>
<text xml:space="preserve" text-anchor="middle" x="469.62" y="-43.75" font-family="Helvetica,sans-Serif" font-size="9.00">drain</text>
</g>
<!-- journal -->
<g id="node5" class="node">
<title>journal</title>
<path fill="white" stroke="#c3ced9" d="M967,-102.25C967,-102.25 851.25,-102.25 851.25,-102.25 845.25,-102.25 839.25,-96.25 839.25,-90.25 839.25,-90.25 839.25,-78.25 839.25,-78.25 839.25,-72.25 845.25,-66.25 851.25,-66.25 851.25,-66.25 967,-66.25 967,-66.25 973,-66.25 979,-72.25 979,-78.25 979,-78.25 979,-90.25 979,-90.25 979,-96.25 973,-102.25 967,-102.25"/>
<text xml:space="preserve" text-anchor="middle" x="909.12" y="-87.3" font-family="Helvetica,sans-Serif" font-size="11.00">dream journal</text>
<text xml:space="preserve" text-anchor="middle" x="909.12" y="-73.8" font-family="Helvetica,sans-Serif" font-size="11.00">dreams.jsonl (rotated)</text>
</g>
<!-- dreaming&#45;&gt;journal -->
<g id="edge4" class="edge">
<title>dreaming&#45;&gt;journal</title>
<path fill="none" stroke="#5a6b7b" d="M716.55,-64.41C752.68,-68.15 793.15,-72.34 827.55,-75.9"/>
<polygon fill="#5a6b7b" stroke="#5a6b7b" points="827.16,-79.38 837.47,-76.93 827.88,-72.42 827.16,-79.38"/>
</g>
<!-- longterm -->
<g id="node6" class="node">
<title>longterm</title>
<path fill="#efeafb" stroke="#b9a6e3" d="M1003,-48.5C1003,-48.5 815.25,-48.5 815.25,-48.5 809.25,-48.5 803.25,-42.5 803.25,-36.5 803.25,-36.5 803.25,-12 803.25,-12 803.25,-6 809.25,0 815.25,0 815.25,0 1003,0 1003,0 1009,0 1015,-6 1015,-12 1015,-12 1015,-36.5 1015,-36.5 1015,-42.5 1009,-48.5 1003,-48.5"/>
<text xml:space="preserve" text-anchor="middle" x="909.12" y="-34.05" font-family="Helvetica,sans-Serif" font-size="11.00">long&#45;term memory</text>
<text xml:space="preserve" text-anchor="middle" x="909.12" y="-20.55" font-family="Helvetica,sans-Serif" font-size="11.00">salient → CODEBUDDY_MEMORY.md</text>
<text xml:space="preserve" text-anchor="middle" x="909.12" y="-7.05" font-family="Helvetica,sans-Serif" font-size="11.00">(the file the agent reads)</text>
</g>
<!-- dreaming&#45;&gt;longterm -->
<g id="edge5" class="edge">
<title>dreaming&#45;&gt;longterm</title>
<path fill="none" stroke="#5a6b7b" d="M716.55,-44.09C740.75,-41.59 766.89,-38.88 791.85,-36.29"/>
<polygon fill="#5a6b7b" stroke="#5a6b7b" points="792.14,-39.78 801.73,-35.27 791.42,-32.82 792.14,-39.78"/>
<text xml:space="preserve" text-anchor="middle" x="759.75" y="-44.64" font-family="Helvetica,sans-Serif" font-size="9.00">salient only</text>
</g>
</g>
</svg>
